<?xml version="1.0" encoding="utf-8"?>
<!-- Generator: Adobe Illustrator 25.0.1, SVG Export Plug-In . SVG Version: 6.00 Build 0)  -->
<svg version="1.1" id="design" xmlns="http://www.w3.org/2000/svg" xmlns:xlink="http://www.w3.org/1999/xlink" x="0px" y="0px"
	 viewBox="0 0 960 640" style="enable-background:new 0 0 960 640;" xml:space="preserve">
<style type="text/css">
	.st0{opacity:0.28;fill:#8587DC;}
	.st1{fill:#FFFFFF;}
	.st2{fill:none;stroke:#8587DC;stroke-width:2;stroke-linecap:round;stroke-miterlimit:10;}
	.st3{fill:none;stroke:#4FD1D9;stroke-width:2;stroke-linecap:round;stroke-miterlimit:10;stroke-dasharray:7.9446,7.9446;}
	.st4{fill:none;stroke:#8587DC;stroke-width:2;stroke-linecap:round;stroke-miterlimit:10;stroke-dasharray:7.951,7.951;}
	.st5{opacity:0.48;}
	.st6{fill:#8587DC;}
	.st7{fill:#8587DC;stroke:#8587DC;stroke-miterlimit:10;}
	.st8{fill:none;stroke:#8587DC;stroke-width:2;stroke-miterlimit:10;}
	.st9{fill:none;stroke:#8587DC;stroke-width:2;stroke-linejoin:round;stroke-miterlimit:10;}
</style>
<g>
	<g>
		<path class="st0" d="M727.06,404.45c0,50.88-14.02,98.49-38.41,139.16H223.54c-24.4-40.67-38.42-88.28-38.42-139.16
			c0-149.66,121.32-270.97,270.97-270.97C605.74,133.48,727.06,254.79,727.06,404.45z"/>
		<g>
			<path class="st1" d="M315.72,209.19h-147.2c-5.86,0-10.61-4.75-10.61-10.61l0,0c0-5.86,4.75-10.61,10.61-10.61h147.2
				c5.86,0,10.61,4.75,10.61,10.61l0,0C326.33,204.44,321.58,209.19,315.72,209.19z"/>
			<path class="st1" d="M646.9,175.1H491.62c-3.63,0-6.57-2.94-6.57-6.57v-8.08c0-3.63,2.94-6.57,6.57-6.57H646.9
				c3.63,0,6.57,2.94,6.57,6.57v8.08C653.47,172.16,650.53,175.1,646.9,175.1z"/>
			<path class="st1" d="M773.83,330.82h-147.2c-5.86,0-10.61-4.75-10.61-10.61l0,0c0-5.86,4.75-10.61,10.61-10.61h147.2
				c5.86,0,10.61,4.75,10.61,10.61l0,0C784.44,326.07,779.69,330.82,773.83,330.82z"/>
			<path class="st1" d="M835.37,364.58h-147.2c-5.86,0-10.61-4.75-10.61-10.61l0,0c0-5.86,4.75-10.61,10.61-10.61h147.2
				c5.86,0,10.61,4.75,10.61,10.61l0,0C845.98,359.83,841.23,364.58,835.37,364.58z"/>
			<path class="st1" d="M325.58,308.47h-147.2c-5.86,0-10.61-4.75-10.61-10.61l0,0c0-5.86,4.75-10.61,10.61-10.61h147.2
				c5.86,0,10.61,4.75,10.61,10.61l0,0C336.19,303.72,331.44,308.47,325.58,308.47z"/>
		</g>
		<g>
			<g>
				<path class="st2" d="M715.77,537.91c-0.99,1.91-1.99,3.82-3.02,5.71h-6.46"/>
				<line class="st3" x1="693.46" y1="543.61" x2="212.29" y2="543.61"/>
				<path class="st2" d="M205.88,543.61h-6.46c-1.03-1.89-2.03-3.79-3.02-5.71"/>
				<path class="st4" d="M190.77,526.36c-17.07-37.1-26.6-78.39-26.6-121.91c0-161.22,130.69-291.92,291.9-291.92
					S748,243.24,748,404.45c0,45.8-10.55,89.13-29.35,127.71"/>
			</g>
		</g>
	</g>
	<g>
		<line class="st2" x1="141.77" y1="207.82" x2="127.24" y2="222.35"/>
		<line class="st2" x1="127.24" y1="207.82" x2="141.77" y2="222.35"/>
	</g>
	<g>
		<line class="st2" x1="20.35" y1="504.3" x2="5.82" y2="518.83"/>
		<line class="st2" x1="5.82" y1="504.3" x2="20.35" y2="518.83"/>
	</g>
	<g>
		<line class="st2" x1="398.91" y1="172.64" x2="384.38" y2="187.17"/>
		<line class="st2" x1="384.38" y1="172.64" x2="398.91" y2="187.17"/>
	</g>
	<g>
		<line class="st2" x1="840.32" y1="456.97" x2="825.79" y2="471.5"/>
		<line class="st2" x1="825.79" y1="456.97" x2="840.32" y2="471.5"/>
	</g>
	<g>
		<line class="st2" x1="822.11" y1="207.82" x2="807.58" y2="222.35"/>
		<line class="st2" x1="807.58" y1="207.82" x2="822.11" y2="222.35"/>
	</g>
	<g>
		<line class="st2" x1="687.71" y1="119.19" x2="673.18" y2="133.72"/>
		<line class="st2" x1="673.18" y1="119.19" x2="687.71" y2="133.72"/>
	</g>
	<circle class="st2" cx="69.47" cy="318.73" r="9.13"/>
	<path class="st2" d="M120.1,438.78c3.79,3.33,4.16,9.1,0.83,12.89c-3.33,3.79-9.1,4.16-12.89,0.83c-3.79-3.33-4.16-9.1-0.83-12.89
		C110.54,435.82,116.31,435.45,120.1,438.78z"/>
	<circle class="st2" cx="940.92" cy="520.7" r="9.13"/>
	<path class="st2" d="M591.46,204.55c0,5.04-4.09,9.13-9.13,9.13c-5.04,0-9.13-4.09-9.13-9.13c0-5.04,4.09-9.13,9.13-9.13
		C587.37,195.42,591.46,199.51,591.46,204.55z"/>
	<circle class="st2" cx="354.34" cy="46.4" r="9.13"/>
	<circle class="st2" cx="800.67" cy="356.51" r="9.13"/>
	<g>
		<g>
			<g class="st5">
				<path class="st6" d="M582.33,425.81c0,2.2-0.73,4.05-2.17,5.54c-1.45,1.49-3.54,2.23-6.29,2.23h-4.12v11.66
					c0,6.35-3.25,9.52-9.76,9.52c-5.49,0-8.24-3.43-8.24-10.3v-10.88h-36.21c-8.38,0-12.57-2.27-12.57-6.8
					c0-1.81,0.68-3.85,2.06-6.12c1.37-2.27,2.49-4.05,3.36-5.34L537.01,371c2.31-3.24,4.73-5.64,7.26-7.19
					c2.53-1.55,5.45-2.33,8.78-2.33c5.35,0,9.46,1.36,12.36,4.08c2.89,2.72,4.34,7.26,4.34,13.6v38.87h4.12
					c2.74,0,4.84,0.78,6.29,2.33C581.6,421.92,582.33,423.74,582.33,425.81z M551.76,418.04V378l-25.15,40.04H551.76z"/>
				<path class="st6" d="M382.05,425.81c0,2.2-0.73,4.05-2.17,5.54c-1.45,1.49-3.54,2.23-6.29,2.23h-4.12v11.66
					c0,6.35-3.25,9.52-9.76,9.52c-5.49,0-8.24-3.43-8.24-10.3v-10.88h-36.21c-8.38,0-12.57-2.27-12.57-6.8
					c0-1.81,0.68-3.85,2.06-6.12c1.37-2.27,2.49-4.05,3.36-5.34L336.74,371c2.31-3.24,4.73-5.64,7.26-7.19
					c2.53-1.55,5.45-2.33,8.78-2.33c5.35,0,9.46,1.36,12.36,4.08c2.89,2.72,4.34,7.26,4.34,13.6v38.87h4.12
					c2.74,0,4.84,0.78,6.29,2.33C381.33,421.92,382.05,423.74,382.05,425.81z M351.48,418.04V378l-25.15,40.04H351.48z"/>
				<path class="st6" d="M479.49,398.83h-5.76c-0.93-3.74-2.41-7.27-4.35-10.49l4.08-4.08c1.35-1.35,1.35-3.55,0-4.9l-8.39-8.39
					c-1.35-1.35-3.55-1.35-4.9,0l-4.08,4.08c-3.22-1.94-6.75-3.41-10.49-4.35v-5.76c0-1.91-1.55-3.46-3.46-3.46h-11.87
					c-1.91,0-3.46,1.55-3.46,3.46v5.76c-3.74,0.93-7.27,2.41-10.49,4.35l-4.08-4.08c-1.35-1.35-3.55-1.35-4.9,0l-8.39,8.39
					c-1.35,1.35-1.35,3.55,0,4.9l4.08,4.08c-1.94,3.22-3.41,6.75-4.35,10.49h-5.76c-1.91,0-3.46,1.55-3.46,3.46v11.87
					c0,1.91,1.55,3.46,3.46,3.46h5.76c0.93,3.74,2.41,7.27,4.35,10.49l-4.08,4.08c-1.35,1.35-1.35,3.55,0,4.9l8.39,8.39
					c1.35,1.35,3.55,1.35,4.9,0l4.08-4.08c3.22,1.94,6.75,3.41,10.49,4.35v5.76c0,1.91,1.55,3.46,3.46,3.46h11.87
					c1.91,0,3.46-1.55,3.46-3.46v-5.76c3.74-0.93,7.27-2.41,10.49-4.35l4.08,4.08c1.35,1.35,3.55,1.35,4.9,0l8.39-8.39
					c1.35-1.35,1.35-3.55,0-4.9l-4.08-4.08c1.94-3.22,3.41-6.75,4.35-10.49h5.76c1.91,0,3.46-1.55,3.46-3.46V402.3
					C482.96,400.38,481.41,398.83,479.49,398.83z M436.21,431.64c-12.93,0-23.41-10.48-23.41-23.41c0-12.93,10.48-23.41,23.41-23.41
					c12.93,0,23.41,10.48,23.41,23.41C459.62,421.16,449.14,431.64,436.21,431.64z"/>
				<path class="st7" d="M518.83,370.33l-3.02-0.27c-0.32-2-0.93-3.92-1.79-5.7l2.33-1.95c0.77-0.65,0.87-1.79,0.23-2.57l-4.01-4.79
					c-0.65-0.77-1.79-0.87-2.57-0.23l-2.33,1.95c-1.6-1.16-3.38-2.1-5.29-2.77l0.27-3.02c0.09-1-0.65-1.89-1.65-1.98l-6.22-0.55
					c-1-0.09-1.89,0.65-1.98,1.65l-0.27,3.02c-2,0.32-3.92,0.93-5.7,1.79l-1.95-2.33c-0.65-0.77-1.79-0.87-2.57-0.23l-4.79,4.01
					c-0.77,0.65-0.87,1.79-0.23,2.57l1.95,2.33c-1.16,1.6-2.1,3.38-2.77,5.29l-3.02-0.27c-1-0.09-1.89,0.65-1.98,1.65l-0.55,6.22
					c-0.09,1,0.65,1.89,1.65,1.98l3.02,0.27c0.32,2,0.93,3.92,1.79,5.7l-2.33,1.95c-0.77,0.65-0.87,1.79-0.23,2.57l4.01,4.79
					c0.65,0.77,1.79,0.87,2.57,0.23l2.33-1.95c1.6,1.16,3.38,2.1,5.29,2.77l-0.27,3.02c-0.09,1,0.65,1.89,1.65,1.98l6.22,0.55
					c1,0.09,1.89-0.65,1.98-1.65l0.27-3.02c2-0.32,3.92-0.93,5.7-1.79l1.95,2.33c0.65,0.77,1.79,0.87,2.57,0.23l4.79-4.01
					c0.77-0.65,0.87-1.79,0.23-2.57l-1.95-2.33c1.16-1.6,2.1-3.38,2.77-5.29l3.02,0.27c1,0.09,1.89-0.65,1.98-1.65l0.55-6.22
					C520.57,371.3,519.83,370.42,518.83,370.33z M494.62,385.5c-6.77-0.6-11.78-6.58-11.18-13.36c0.6-6.77,6.58-11.78,13.36-11.18
					c6.77,0.6,11.78,6.58,11.18,13.36C507.37,381.1,501.39,386.11,494.62,385.5z"/>
			</g>
			<g>
				<path class="st8" d="M357.79,420.24V380.2l-25.15,40.04H357.79z"/>
				<path class="st8" d="M442.51,433.63c-12.93,0-23.41-10.48-23.41-23.41c0-12.93,10.48-23.41,23.41-23.41
					c12.93,0,23.41,10.48,23.41,23.41C465.92,423.15,455.44,433.63,442.51,433.63z"/>
				<path class="st8" d="M525.13,372.53l-3.02-0.27c-0.32-2-0.93-3.92-1.79-5.7l2.33-1.95c0.77-0.65,0.87-1.79,0.23-2.57l-4.01-4.79
					c-0.65-0.77-1.79-0.87-2.57-0.23l-2.33,1.95c-1.6-1.16-3.38-2.1-5.29-2.77l0.27-3.02c0.09-1-0.65-1.89-1.65-1.98l-6.22-0.55
					c-1-0.09-1.89,0.65-1.98,1.65l-0.27,3.02c-2,0.32-3.92,0.93-5.7,1.79l-1.95-2.33c-0.65-0.77-1.79-0.87-2.57-0.23l-4.79,4.01
					c-0.77,0.65-0.87,1.79-0.23,2.57l1.95,2.33c-1.16,1.6-2.1,3.38-2.77,5.29l-3.02-0.27c-1-0.09-1.89,0.65-1.98,1.65l-0.55,6.22
					c-0.09,1,0.65,1.89,1.65,1.98l3.02,0.27c0.32,2,0.93,3.92,1.79,5.7l-2.33,1.95c-0.77,0.65-0.87,1.79-0.23,2.57l4.01,4.79
					c0.65,0.77,1.79,0.87,2.57,0.23l2.33-1.95c1.6,1.16,3.38,2.1,5.29,2.77l-0.27,3.02c-0.09,1,0.65,1.89,1.65,1.98l6.22,0.55
					c1,0.09,1.89-0.65,1.98-1.65l0.27-3.02c2-0.32,3.92-0.93,5.7-1.79l1.95,2.33c0.65,0.77,1.79,0.87,2.57,0.23l4.79-4.01
					c0.77-0.65,0.87-1.79,0.23-2.57l-1.95-2.33c1.16-1.6,2.1-3.38,2.77-5.29l3.02,0.27c1,0.09,1.89-0.65,1.98-1.65l0.55-6.22
					C526.88,373.5,526.14,372.62,525.13,372.53z M500.93,387.7c-6.77-0.6-11.78-6.58-11.18-13.36c0.6-6.77,6.58-11.78,13.36-11.18
					c6.77,0.6,11.78,6.58,11.18,13.36C513.68,383.3,507.7,388.31,500.93,387.7z"/>
				<path class="st8" d="M645.09,456.97h-59.37c-8.12,0-9.81-3.17-9.81-9.52v-11.66h4.12c2.74,0,4.84-0.74,6.29-2.23
					c1.44-1.49,2.17-3.33,2.17-5.54c0-2.07-0.72-3.89-2.17-5.44c-1.45-1.55-3.54-2.33-6.29-2.33h-4.12v-38.87
					c0-6.35-1.45-10.88-4.34-13.6c-2.89-2.72-7.01-4.08-12.36-4.08c-3.33,0-6.25,0.78-8.78,2.33c-2.53,1.55-4.95,3.95-7.26,7.19
					l-28.62,44.31c-0.87,1.3-1.99,3.08-3.36,5.34c-1.38,2.27-2.06,4.31-2.06,6.12c0,4.54,4.19,6.8,12.57,6.8h36.21v10.88
					c0,6.87-0.85,10.3-12.01,10.3c-15.85,0-54.86,0-54.86,0h-35c-3.21,0-4.12-1.55-4.12-3.46v-5.76c3.74-0.93,7.27-2.41,10.49-4.35
					l4.08,4.08c1.35,1.35,3.55,1.35,4.9,0l8.39-8.39c1.35-1.35,1.35-3.55,0-4.9l-4.08-4.08c1.94-3.22,3.41-6.75,4.35-10.49h5.76
					c1.91,0,3.46-1.55,3.46-3.46v-11.87c0-1.91-1.55-3.46-3.46-3.46h-5.76c-0.93-3.74-2.41-7.27-4.35-10.49l4.08-4.08
					c1.35-1.35,1.35-3.55,0-4.9l-8.39-8.39c-1.35-1.35-3.55-1.35-4.9,0l-4.08,4.08c-3.22-1.94-6.75-3.41-10.49-4.35v-5.76
					c0-1.91-1.55-3.46-3.46-3.46h-11.87c-1.91,0-3.46,1.55-3.46,3.46v5.76c-3.74,0.93-7.27,2.41-10.49,4.35l-4.08-4.08
					c-1.35-1.35-3.55-1.35-4.9,0l-8.39,8.39c-1.35,1.35-1.35,3.55,0,4.9l4.08,4.08c-1.94,3.22-3.41,6.75-4.35,10.49h-5.76
					c-1.91,0-3.46,1.55-3.46,3.46v11.87c0,1.91,1.55,3.46,3.46,3.46h5.76c0.93,3.74,2.41,7.27,4.35,10.49l-4.08,4.08
					c-1.35,1.35-1.35,3.55,0,4.9l8.39,8.39c1.35,1.35,3.55,1.35,4.9,0l4.08-4.08c3.22,1.94,6.75,3.41,10.49,4.35v5.76
					c0,2.78-3.05,3.46-6.59,3.46h-40.94c-8.12,0-9.81-3.17-9.81-9.52v-11.66h4.12c2.74,0,4.84-0.74,6.29-2.23
					c1.44-1.49,2.17-3.33,2.17-5.54c0-2.07-0.73-3.89-2.17-5.44c-1.45-1.55-3.54-2.33-6.29-2.33h-4.12v-38.87
					c0-6.35-1.45-10.88-4.34-13.6c-2.89-2.72-7.01-4.08-12.36-4.08c-3.33,0-6.25,0.78-8.78,2.33c-2.53,1.55-4.95,3.95-7.26,7.19
					l-28.62,44.31c-0.87,1.3-1.99,3.08-3.36,5.34c-1.38,2.27-2.06,4.31-2.06,6.12c0,4.54,4.19,6.8,12.57,6.8h36.21v10.88
					c0,6.87-0.85,10.3-12.01,10.3c-15.85,0-78.69,0-78.69,0 M557.91,420.24V380.2l-25.15,40.04H557.91z"/>
			</g>
		</g>
		<g>
			<g>
				<path class="st8" d="M680.45,543.61H231.73V253.89c0-6.93,5.61-12.54,12.54-12.54H667.9c6.93,0,12.54,5.61,12.54,12.54V543.61z"
					/>
				<rect x="251.98" y="260.21" class="st8" width="408.21" height="264.23"/>
			</g>
			<g>
				<rect x="177.04" y="543.61" class="st8" width="558.09" height="19.63"/>
				<path class="st9" d="M710.4,575.83H201.77c-5.56,0-10.96-1.86-15.34-5.27l-9.39-7.31h558.09l-9.39,7.31
					C721.36,573.97,715.96,575.83,710.4,575.83z"/>
			</g>
		</g>
	</g>
</g>
</svg>
